HIERARCHY
ROOT Hips
{
  OFFSET 89.245 92.8685 40.8097
  CHANNELS 6 Xposition Yposition Zposition Zrotation Xrotation Yrotation
  JOINT ToSpine
  {
    OFFSET -2.69724 7.43032 -0.144315
    CHANNELS 3 Zrotation Xrotation Yrotation
    JOINT Spine
    {
      OFFSET -0.0310711 10.7595 1.96963
      CHANNELS 3 Zrotation Xrotation Yrotation
      JOINT Spine1
      {
        OFFSET 13.1342 3.43533 0.764692
        CHANNELS 3 Zrotation Xrotation Yrotation
        JOINT Neck
        {
          OFFSET 29.8703 7.82586 -0.130764
          CHANNELS 3 Zrotation Xrotation Yrotation
          JOINT Head
          {
            OFFSET 9.52751 0.295786 -0.907742
            CHANNELS 3 Zrotation Xrotation Yrotation
            End Site
            {
              OFFSET 16.4037 0.713936 2.7358
            }
          }
        }
        JOINT LeftShoulder
        {
          OFFSET 27.5574 4.95586 2.47156
          CHANNELS 3 Zrotation Xrotation Yrotation
          JOINT LeftArm
          {
            OFFSET 1.20734 -0.998971 20.1238
            CHANNELS 3 Zrotation Xrotation Yrotation
            JOINT LeftForeArm
            {
              OFFSET 26.8049 -0.0536703 -0.155908
              CHANNELS 3 Zrotation Xrotation Yrotation
              JOINT LeftHand
              {
                OFFSET 26.6817 0 0.320147
                CHANNELS 3 Zrotation Xrotation Yrotation
                End Site
                {
                  OFFSET 18.6119 0 0.382219
                }
              }
            }
          }
        }
        JOINT RightShoulder
        {
          OFFSET 27.5927 4.71444 -2.65209
          CHANNELS 3 Zrotation Xrotation Yrotation
          JOINT RightArm
          {
            OFFSET 2.83739 -1.17114 -18.7564
            CHANNELS 3 Zrotation Xrotation Yrotation
            JOINT RightForeArm
            {
              OFFSET 28.839 -0.0548439 1.22491
              CHANNELS 3 Zrotation Xrotation Yrotation
              JOINT RightHand
              {
                OFFSET 26.5114 0 -0.101894
                CHANNELS 3 Zrotation Xrotation Yrotation
                End Site
                {
                  OFFSET 18.2168 0 0
                }
              }
            }
          }
        }
      }
    }
  }
  JOINT LeftUpLeg
  {
    OFFSET -4.76168 -1.9167 -10.2353
    CHANNELS 3 Zrotation Xrotation Yrotation
    JOINT LeftLeg
    {
      OFFSET 2.55951 -42.0585 -8.02213
      CHANNELS 3 Zrotation Xrotation Yrotation
      JOINT LeftFoot
      {
        OFFSET 3.16357 -42.5282 -3.95426
        CHANNELS 3 Zrotation Xrotation Yrotation
        JOINT LeftToeBase
        {
          OFFSET 0.346054 -6.02161 12.8035
          CHANNELS 3 Zrotation Xrotation Yrotation
          End Site
          {
            OFFSET 0.134235 -1.35082 5.13018
          }
        }
      }
    }
  }
  JOINT RightUpLeg
  {
    OFFSET -4.94151 -1.41743 10.6446
    CHANNELS 3 Zrotation Xrotation Yrotation
    JOINT RightLeg
    {
      OFFSET -2.56294 -42.0364 -7.94377
      CHANNELS 3 Zrotation Xrotation Yrotation
      JOINT RightFoot
      {
        OFFSET -3.0952 -42.555 -4.02241
        CHANNELS 3 Zrotation Xrotation Yrotation
        JOINT RightToeBase
        {
          OFFSET -0.0828122 -6.13587 12.8035
          CHANNELS 3 Zrotation Xrotation Yrotation
          End Site
          {
            OFFSET -0.131328 -1.35082 5.13018
          }
        }
      }
    }
  }
}
MOTION
Frames:	11
Frame Time:	0.0333333
99.3604 92.9904 63.3129 -61.4213 -36.4251 -159.836 -70.1915 0 88.8779 86.9075 76.5423 2.63602 5.33608 30.5554 -4.32765 -131.316 23.5663 -163.21 -150.3 57.1126 -175.555 0.759253 -13.2486 -21.0013 -126.29 37.7357 -80.1401 19.1381 -15.9919 -127.561 0.390949 0.00264826 0.569991 -1.27986 9.07476 27.8444 -54.4465 -33.2011 152.837 6.95998 2.82306 111.485 0.58676 0.00033104 0.0646653 -34.2454 15.8604 95.9373 -3.67242 46.9217 -9.64708 -0.833004 -8.49376 -0.715014 3.63508 -9.51454 7.96328 -51.6924 -15.7456 78.4005 -0.328425 29.2818 13.9377 -2.30634 -6.68371 0.832123 2.29899 -16.8574 -15.9369 
98.5075 92.9974 61.8845 -61.5843 -36.999 -160.104 -70.1915 0 88.8779 86.7741 76.2177 3.21949 5.59665 30.3236 -5.12212 -131.293 22.9311 -163.417 -150.168 56.4799 -175.681 0.819098 -12.7843 -20.5734 -127.356 38.1595 -79.3499 19.3211 -16.0197 -127.325 0.41811 0.00287645 0.512405 -1.25099 9.08278 27.4977 -54.214 -33.248 153.673 6.84171 2.72399 111.119 0.58676 0.00033104 0.0646653 -35.0222 16.0077 95.317 -3.42186 45.1436 -9.46949 -0.99439 -7.08563 -0.582167 3.91299 -9.98365 7.8342 -51.6652 -15.0051 78.5864 0.0737494 29.9416 8.65217 -4.24551 -8.05956 1.02117 2.17437 -16.1402 -9.38919 
97.4926 93.2056 60.1987 -62.0754 -37.725 -160.173 -70.1915 0 88.8779 89.1711 76.2415 0.98205 4.93318 30.3466 -4.74816 -130.98 22.6727 -162.946 -151.471 56.1638 -175.023 0.758269 -13.2285 -21.1307 -127.979 37.5 -78.6671 19.2404 -15.7325 -126.963 0.318294 0.00235615 0.721581 -1.1851 8.90902 27.0419 -54.1438 -33.463 153.8 7.03957 2.74401 110.72 0.58676 0.00033104 0.0646653 -36.3155 16.5468 94.4622 -3.11838 42.5728 -9.37519 -1.56419 -5.22354 -0.369805 4.00635 -10.0553 7.27434 -52.0999 -13.9226 78.426 0.367222 30.39 5.72679 -4.07388 -8.79949 1.04742 2.08045 -16.0149 -5.42172 
96.3747 93.5845 58.4078 -62.4915 -38.6153 -160.168 -70.1915 0 88.8779 89.113 76.0928 1.57044 5.69631 30.4289 -5.7616 -129.895 21.9357 -164.537 -149.523 55.3398 -176.308 0.76758 -13.3174 -20.393 -127.918 38.805 -78.1339 20.1729 -16.0599 -126.111 0.350688 0.00269262 0.675056 -1.19012 8.79659 27.3074 -54.6515 -33.5617 153.465 7.01264 2.67113 110.284 0.58676 0.00033104 0.0646653 -38.0191 17.1107 93.9626 -2.83802 39.0177 -10.2343 -2.35377 -2.90212 -0.0723578 3.63879 -9.62606 8.5491 -52.6537 -12.7958 78.6085 0.353439 31.118 6.25794 -1.71425 -9.41902 0.962852 1.97005 -15.0915 -4.08561 
95.2257 93.8931 56.567 -62.3751 -39.6675 -160.053 -70.1915 0 88.8779 87.9946 75.6187 2.71843 6.16343 30.0181 -6.34716 -130.281 21.8429 -164.306 -150.299 55.4006 -175.5 0.844694 -12.6548 -20.0464 -128.11 38.7198 -77.7595 19.7874 -15.4134 -125.588 0.357289 0.00287941 0.643143 -1.16626 9.17067 26.3586 -53.9834 -34.6511 154.494 7.71706 2.8419 109.68 0.58676 0.00033104 0.0646653 -39.068 17.2917 93.659 -2.52879 35.8728 -9.31241 -3.56068 -1.35033 0.223658 2.34084 -7.34611 8.5309 -53.2255 -12.0731 78.4416 0.617213 31.1216 8.20906 -2.1894 -9.88174 1.00783 2.07837 -15.9403 -5.718 
94.2723 94.1377 54.943 -61.6386 -40.8841 -159.462 -70.1915 0 88.8779 87.6594 75.2711 2.81835 5.41617 29.7035 -6.15061 -127.657 21.4056 -166.87 -144.187 54.3514 -178.571 0.797329 -13.0359 -20.4406 -128.136 37.8574 -77.2755 19.7344 -15.2318 -125.352 0.177214 0.00189191 1.0275 -1.19078 9.03925 26.8713 -54.0927 -34.4035 153.621 7.8633 2.89662 109.686 0.58676 0.00033104 0.0646653 -38.9369 17.5974 94.9899 -2.24853 34.0529 -7.99553 -4.77744 -1.07611 0.398445 0.196345 -4.11258 10.6189 -53.4705 -11.282 78.2433 0.632756 30.9984 7.00087 -1.02736 -11.9943 1.11532 1.73442 -12.4584 -3.72583 
93.5935 94.3052 53.5717 -61.2146 -42.6058 -158.787 -70.1915 0 88.8779 88.7718 74.6092 1.6056 5.08838 28.859 -5.68974 -129.789 21.3202 -165.412 -148.787 54.8805 -176.177 0.779072 -13.04 -21.1347 -128.58 36.8951 -76.8875 19.6942 -15.1083 -125.196 0.0828897 0.0013739 1.23182 -1.11821 8.96048 26.1629 -54.004 -35.062 153.85 7.58453 2.8154 109.818 0.58676 0.00033104 0.0646653 -38.5347 18.2182 98.6461 -2.67575 35.1996 -11.26 -5.03948 -1.85136 0.335639 0.352952 -4.94816 12.6114 -54.0481 -10.326 78.18 0.623341 30.8977 4.50694 -1.57226 -13.0407 1.18935 1.53444 -11.279 -2.61701 
93.2776 94.361 52.4974 -61.24 -44.0988 -158.664 -70.1915 0 88.8779 91.7487 74.0099 -1.12545 4.56549 28.2657 -5.83187 -129.818 21.197 -165.695 -149.575 54.9417 -175.716 0.736972 -13.3395 -21.3971 -128.734 36.2248 -76.2303 19.2003 -14.7453 -125.293 -0.0801166 0.000923248 1.59901 -1.13343 8.87071 26.4933 -54.717 -34.8559 153.205 7.17724 2.68137 109.922 0.58676 0.00033104 0.0646653 -38.2569 17.0529 99.5293 -2.63116 37.2561 -9.85631 -4.87092 -3.18173 0.156662 0.178029 -3.92149 9.96542 -54.1532 -9.7406 78.7166 0.447076 31.8515 3.43095 -1.00478 -14.5265 1.29154 1.39365 -9.18841 -3.49908 
93.0329 94.3709 51.703 -61.7079 -44.4702 -159.433 -70.1915 0 88.8779 91.7101 74.1134 -1.30233 4.62953 28.1603 -5.25778 -129.694 21.5477 -165.442 -150.235 55.3529 -174.813 0.667509 -13.7159 -22.2552 -129.184 35.3926 -75.4708 19.2403 -14.7091 -125.168 -0.161804 0.00131251 1.77905 -1.06463 8.78215 25.829 -54.7512 -35.3709 153.175 7.27792 2.69738 109.777 0.58676 0.00033104 0.0646653 -39.1784 16.3426 100.423 -2.32002 36.1003 -7.15049 -3.68083 -2.87038 0.0677634 -0.285223 -2.38831 7.79025 -53.5025 -9.32944 80.007 0.290826 33.5301 2.19682 -1.44531 -14.9559 1.31933 1.46951 -9.36443 -4.16546 
92.8132 94.436 51.1173 -62.3432 -43.8776 -160.295 -70.1915 0 88.8779 90.7974 74.2884 0.241992 5.20293 28.3155 -5.55426 -130.555 21.7642 -164.103 -152.071 55.656 -173.178 0.681436 -13.5056 -22.6407 -129.692 34.9618 -74.2023 19.1803 -14.6413 -125.136 -0.000592702 0.00212565 1.41605 -1.02085 8.90937 25.0891 -53.8559 -35.7192 154.082 7.55128 2.75766 109.515 0.58676 0.00033104 0.0646653 -40.4106 16.6307 101.404 -2.03272 34.019 -5.76541 -2.94247 -1.48725 0.134964 0.195656 -1.9334 3.81 -53.2514 -9.13266 80.2153 0.375204 33.6927 2.90374 -2.5858 -15.4764 1.34625 1.46517 -8.75769 -4.75387 
92.6655 94.4807 50.7611 -62.9605 -43.2359 -160.942 -70.1915 0 88.8779 90.9436 74.2925 1.07844 5.20737 28.4586 -6.11665 -129.499 21.3978 -164.621 -150.232 54.9893 -174.382 0.713472 -13.2713 -22.5452 -129.646 34.9635 -72.6343 20.7197 -15.6482 -124.636 0.224896 -0.000395136 0.94169 -1.11189 9.13945 25.7919 -53.7759 -35.7049 153.603 7.52459 2.74097 109.468 0.58676 0.00033104 0.0646653 -41.7276 17.1382 102.144 -1.92178 32.2823 -5.77792 -3.17289 -0.569775 0.259632 0.911624 -2.65183 1.7652 -53.0412 -9.14307 80.0567 0.683034 34.134 3.87061 -2.9781 -15.1016 1.32472 1.54342 -9.36405 -5.08911 
